<svg viewBox="0 0 1000 100" preserveAspectRatio="none" xmlns="http://www.w3.org/2000/svg">
      <path fill="rgba(178, 178, 178, 0.4)" d="M 0 73.78297637257583 L 15.625 72.7770202734254 L 31.25 72.32776649279549 L 46.875 70.10850876511675 L 62.5 72.80416424851734 L 78.125 61.874927874442065 L 93.75 62.367362656424866 L 109.375 56.21135513980907 L 125 51.83321580146225 L 140.625 47.78815255922807 L 156.25 47.774248222565014 L 171.875 54.85358979765649 L 187.5 57.306273228372234 L 203.125 50.4149233701861 L 218.75 55.38281108967035 L 234.375 48.60772844121165 L 250 54.45677501987878 L 265.625 57.39379086928781 L 281.25 54.78966376803879 L 296.875 58.36562317368277 L 312.5 70.31676191753712 L 328.125 71.07485302100103 L 343.75 64.55775233820539 L 359.375 68.80830527182238 L 375 71.3794754740032 L 390.625 71.43219086607004 L 406.25 66.60298759656965 L 421.875 72.07569720870892 L 437.5 72.90157690543418 L 453.125 67.32587859940126 L 468.75 69.55957968981879 L 484.375 63.395904895505566 L 500 64.90255612935096 L 515.625 69.54913646021194 L 531.25 66.3030768043094 L 546.875 67.03904327679707 L 562.5 65.59540529053393 L 578.125 64.5484705898191 L 593.75 63.12564257927026 L 609.375 58.05490313915185 L 625 58.91324083545527 L 640.625 51.08047551452957 L 656.25 51.812619838246704 L 671.875 52.779760600504474 L 687.5 51.18092339282005 L 703.125 47.33251708765289 L 718.75 53.516211816140924 L 734.375 59.45432739021566 L 750 61.68008003352065 L 765.625 57.34300583954561 L 781.25 61.78149238727765 L 796.875 59.70567328171743 L 812.5 61.81866402597679 L 828.125 62.30790733453899 L 843.75 54.26566414358127 L 859.375 62.61858206873106 L 875 59.061895501261574 L 890.625 60.19162314172443 L 906.25 62.85304660641018 L 921.875 69.16539348612405 L 937.5 67.67042071886875 L 953.125 72.58388998202197 L 968.75 73.21962461447004 L 984.375 78.96901387772085 L 1000 73.2291263124395 L 1000 100 L 0 100 Z"></path>
    </svg>